<?xml version="1.0" standalone="no"?>
<!DOCTYPE svg PUBLIC "-//W3C//DTD SVG 20010904//EN"
 "http://www.w3.org/TR/2001/REC-SVG-20010904/DTD/svg10.dtd">
<svg version="1.0" xmlns="http://www.w3.org/2000/svg"
 width="1280.000000pt" height="720.000000pt" viewBox="0 0 1280.000000 720.000000"
 preserveAspectRatio="xMidYMid meet">
<g transform="translate(0.000000,720.000000) scale(0.100000,-0.100000)"
fill="#000000" stroke="none">
<path d="M3027 6919 c-160 -18 -392 -81 -452 -122 -54 -36 -105 -90 -114 -121
-6 -17 -38 -173 -72 -346 -45 -233 -66 -319 -79 -330 -10 -8 -55 -43 -102 -76
-323 -237 -560 -592 -653 -981 -32 -135 -515 -3442 -515 -3526 0 -34 5 -93 10
-132 73 -509 448 -897 950 -980 143 -24 327 -16 465 20 255 67 495 231 647
445 24 33 214 397 423 808 221 435 386 748 395 750 9 1 27 -16 42 -40 148
-235 422 -418 712 -473 106 -21 308 -21 406 0 329 69 600 265 750 546 l43 79
623 0 622 0 38 -67 c141 -256 382 -454 649 -531 112 -33 192 -44 320 -43 225
0 417 59 610 186 78 52 231 203 284 283 23 34 48 62 55 62 7 0 180 -330 384
-732 204 -403 389 -760 411 -793 160 -242 388 -404 680 -483 86 -23 115 -26
271 -26 148 0 189 3 263 22 454 113 783 465 862 920 28 159 22 220 -100 1053
-63 431 -173 1187 -245 1679 -72 492 -142 940 -156 994 -49 194 -143 397 -262
566 -87 124 -300 338 -414 414 -82 55 -88 62 -97 105 -5 25 -35 174 -65 331
-31 157 -64 300 -74 319 -70 139 -447 242 -832 228 -207 -7 -451 -57 -565
-114 -50 -26 -116 -84 -131 -117 -8 -17 -43 -176 -79 -354 -35 -178 -67 -327
-70 -332 -4 -6 -869 -10 -2354 -10 -1867 0 -2351 3 -2359 13 -5 6 -38 152 -71
322 -34 171 -64 320 -67 333 -6 29 -68 98 -115 127 -71 45 -282 103 -459 124
-95 12 -311 12 -413 0z m660 -1081 l43 -42 0 -296 0 -296 38 -37 37 -36 302
-3 302 -3 41 -40 40 -39 0 -412 0 -411 -45 -42 -45 -41 -297 0 -297 0 -38 -37
-38 -37 0 -298 0 -298 -40 -40 -40 -40 -402 0 -402 0 -43 42 -43 42 0 300 0
300 -32 33 -32 33 -303 0 -303 0 -45 41 -45 42 0 411 0 412 40 39 41 40 307 3
307 3 32 31 33 32 0 300 0 300 42 43 42 43 400 0 400 0 43 -42z m6520 0 l43
-42 0 -296 0 -296 38 -37 37 -36 302 -3 302 -3 41 -40 40 -39 0 -412 0 -411
-45 -42 -45 -41 -297 0 -297 0 -38 -37 -38 -37 0 -298 0 -298 -40 -40 -40 -40
-402 0 -402 0 -43 42 -43 42 0 300 0 300 -32 33 -32 33 -303 0 -303 0 -45 41
-45 42 0 409 0 409 39 42 40 42 308 3 308 3 32 31 33 32 0 300 0 300 42 43 42
43 400 0 400 0 43 -42z m-5190 -2069 c285 -39 532 -214 656 -464 233 -469 3
-1029 -489 -1194 -186 -63 -362 -63 -548 0 -282 94 -495 328 -559 615 -37 166
-30 305 24 469 83 251 286 453 537 534 149 48 245 59 379 40z m3279 -19 c353
-90 607 -385 643 -750 26 -254 -67 -507 -252 -689 -255 -251 -627 -317 -954
-170 -230 103 -402 308 -475 566 -31 109 -31 312 1 427 60 223 203 411 402
528 75 45 222 95 311 108 88 12 231 3 324 -20z"/>
<path d="M3158 5706 c-38 -34 -68 -65 -68 -69 0 -4 63 -7 140 -7 77 0 140 4
140 8 0 11 -124 132 -135 132 -6 -1 -40 -29 -77 -64z"/>
<path d="M3010 5241 l0 -230 100 -71 c54 -39 106 -73 114 -76 14 -6 209 123
228 150 5 6 7 110 5 231 l-2 220 -222 3 -223 2 0 -229z"/>
<path d="M2432 4668 l3 -223 225 -3 226 -2 78 110 c47 67 76 117 72 126 -3 8
-38 60 -77 114 l-71 100 -229 0 -229 0 2 -222z"/>
<path d="M3504 4787 c-39 -56 -74 -107 -77 -113 -3 -6 29 -60 72 -120 l77
-109 227 -3 227 -2 0 225 0 225 -227 0 -228 0 -71 -103z"/>
<path d="M2188 4736 l-67 -73 67 -66 c37 -37 71 -67 75 -67 10 0 9 268 -1 274
-4 2 -37 -28 -74 -68z"/>
<path d="M4200 4672 c0 -78 4 -142 9 -142 5 0 37 32 72 71 l62 70 -71 72 -72
72 0 -143z"/>
<path d="M3121 4402 l-111 -77 0 -227 0 -228 225 0 225 0 0 224 0 225 -82 59
c-46 32 -97 68 -114 80 l-31 21 -112 -77z"/>
<path d="M3157 3628 l72 -71 70 62 c39 35 71 67 71 72 0 5 -64 9 -142 9 l-143
0 72 -72z"/>
<path d="M9700 5806 c-189 -42 -305 -210 -279 -401 16 -119 93 -220 207 -273
49 -23 70 -27 147 -27 78 0 97 4 147 28 75 37 138 99 174 172 26 53 29 71 29
150 0 82 -3 97 -33 157 -73 150 -234 229 -392 194z"/>
<path d="M8843 4996 c-100 -33 -169 -92 -221 -189 -24 -47 -27 -62 -27 -152 0
-89 3 -106 28 -157 17 -34 50 -77 82 -107 71 -64 141 -91 240 -91 99 0 169 27
240 91 32 30 65 73 82 107 25 50 28 68 28 152 0 82 -4 103 -26 151 -59 126
-169 200 -307 206 -47 2 -93 -3 -119 -11z"/>
<path d="M10504 4980 c-103 -22 -212 -110 -256 -207 -32 -69 -32 -218 -1 -286
33 -71 113 -150 186 -183 53 -24 75 -28 147 -28 71 -1 94 4 140 25 78 37 131
88 170 161 28 53 35 76 38 143 5 95 -6 141 -50 215 -73 121 -233 190 -374 160z"/>
<path d="M9638 4167 c-115 -43 -194 -124 -228 -234 -25 -82 -25 -134 0 -214
51 -162 193 -258 364 -247 90 6 151 33 220 98 76 72 110 149 110 255 0 69 -4
90 -30 145 -38 80 -101 145 -174 179 -66 31 -201 40 -262 18z"/>
<path d="M4805 3649 c-245 -38 -453 -191 -560 -413 -109 -227 -89 -511 50
-721 138 -208 363 -329 615 -328 318 0 587 190 694 490 111 313 -10 673 -289
858 -143 94 -345 140 -510 114z"/>
<path d="M8010 3653 c-300 -34 -548 -246 -632 -538 -31 -112 -31 -278 0 -390
93 -324 375 -538 712 -538 129 0 203 17 330 79 81 40 109 61 186 138 150 151
214 305 214 516 0 73 -6 131 -20 184 -88 347 -437 589 -790 549z"/>
</g>
</svg>
