<svg xmlns="http://www.w3.org/2000/svg" width="1706.667" height="960" version="1.0" viewBox="0 0 1280 720"><path d="M302.7 28.1c-16 1.8-39.2 8.1-45.2 12.2-5.4 3.6-10.5 9-11.4 12.1-.6 1.7-3.8 17.3-7.2 34.6-4.5 23.3-6.6 31.9-7.9 33-1 .8-5.5 4.3-10.2 7.6-32.3 23.7-56 59.2-65.3 98.1-3.2 13.5-51.5 344.2-51.5 352.6 0 3.4.5 9.3 1 13.2 7.3 50.9 44.8 89.7 95 98 14.3 2.4 32.7 1.6 46.5-2 25.5-6.7 49.5-23.1 64.7-44.5 2.4-3.3 21.4-39.7 42.3-80.8 22.1-43.5 38.6-74.8 39.5-75 .9-.1 2.7 1.6 4.2 4 14.8 23.5 42.2 41.8 71.2 47.3 10.6 2.1 30.8 2.1 40.6 0 32.9-6.9 60-26.5 75-54.6l4.3-7.9h124.5l3.8 6.7c14.1 25.6 38.2 45.4 64.9 53.1 11.2 3.3 19.2 4.4 32 4.3 22.5 0 41.7-5.9 61-18.6 7.8-5.2 23.1-20.3 28.4-28.3 2.3-3.4 4.8-6.2 5.5-6.2s18 33 38.4 73.2c20.4 40.3 38.9 76 41.1 79.3 16 24.2 38.8 40.4 68 48.3 8.6 2.3 11.5 2.6 27.1 2.6 14.8 0 18.9-.3 26.3-2.2 45.4-11.3 78.3-46.5 86.2-92 2.8-15.9 2.2-22-10-105.3-6.3-43.1-17.3-118.7-24.5-167.9s-14.2-94-15.6-99.4c-4.9-19.4-14.3-39.7-26.2-56.6-8.7-12.4-30-33.8-41.4-41.4-8.2-5.5-8.8-6.2-9.7-10.5-.5-2.5-3.5-17.4-6.5-33.1-3.1-15.7-6.4-30-7.4-31.9-7-13.9-44.7-24.2-83.2-22.8-20.7.7-45.1 5.7-56.5 11.4-5 2.6-11.6 8.4-13.1 11.7-.8 1.7-4.3 17.6-7.9 35.4-3.5 17.8-6.7 32.7-7 33.2-.4.6-86.9 1-235.4 1-186.7 0-235.1-.3-235.9-1.3-.5-.6-3.8-15.2-7.1-32.2-3.4-17.1-6.4-32-6.7-33.3-.6-2.9-6.8-9.8-11.5-12.7-7.1-4.5-28.2-10.3-45.9-12.4-9.5-1.2-31.1-1.2-41.3 0m66 108.1 4.3 4.2v59.2l3.8 3.7 3.7 3.6 30.2.3 30.2.3 4.1 4 4 3.9v82.3l-4.5 4.2-4.5 4.1h-59.4l-3.8 3.7-3.8 3.7V373l-4 4-4 4h-80.4l-4.3-4.2-4.3-4.2v-60l-3.2-3.3-3.2-3.3H209l-4.5-4.1-4.5-4.2v-82.3l4-3.9 4.1-4 30.7-.3 30.7-.3 3.2-3.1 3.3-3.2v-60l4.2-4.3 4.2-4.3h80zm652 0 4.3 4.2v59.2l3.8 3.7 3.7 3.6 30.2.3 30.2.3 4.1 4 4 3.9v82.3l-4.5 4.2-4.5 4.1h-59.4l-3.8 3.7-3.8 3.7V373l-4 4-4 4h-80.4l-4.3-4.2-4.3-4.2v-60l-3.2-3.3-3.2-3.3H861l-4.5-4.1-4.5-4.2v-81.8l3.9-4.2 4-4.2 30.8-.3 30.8-.3 3.2-3.1 3.3-3.2v-60l4.2-4.3 4.2-4.3h80zm-519 206.9c28.5 3.9 53.2 21.4 65.6 46.4 23.3 46.9.3 102.9-48.9 119.4-18.6 6.3-36.2 6.3-54.8 0-28.2-9.4-49.5-32.8-55.9-61.5-3.7-16.6-3-30.5 2.4-46.9 8.3-25.1 28.6-45.3 53.7-53.4 14.9-4.8 24.5-5.9 37.9-4m327.9 1.9c35.3 9 60.7 38.5 64.3 75 2.6 25.4-6.7 50.7-25.2 68.9-25.5 25.1-62.7 31.7-95.4 17-23-10.3-40.2-30.8-47.5-56.6-3.1-10.9-3.1-31.2.1-42.7 6-22.3 20.3-41.1 40.2-52.8 7.5-4.5 22.2-9.5 31.1-10.8 8.8-1.2 23.1-.3 32.4 2"/><path d="M315.8 149.4c-3.8 3.4-6.8 6.5-6.8 6.9s6.3.7 14 .7 14-.4 14-.8c0-1.1-12.4-13.2-13.5-13.2-.6.1-4 2.9-7.7 6.4M301 195.9v23l10 7.1c5.4 3.9 10.6 7.3 11.4 7.6 1.4.6 20.9-12.3 22.8-15 .5-.6.7-11 .5-23.1l-.2-22-22.2-.3-22.3-.2zM243.2 253.2l.3 22.3 22.5.3 22.6.2 7.8-11c4.7-6.7 7.6-11.7 7.2-12.6-.3-.8-3.8-6-7.7-11.4l-7.1-10H243zM350.4 241.3c-3.9 5.6-7.4 10.7-7.7 11.3s2.9 6 7.2 12l7.7 10.9 22.7.3 22.7.2v-45h-45.5zM218.8 246.4l-6.7 7.3 6.7 6.6c3.7 3.7 7.1 6.7 7.5 6.7 1 0 .9-26.8-.1-27.4-.4-.2-3.7 2.8-7.4 6.8M420 252.8c0 7.8.4 14.2.9 14.2s3.7-3.2 7.2-7.1l6.2-7-7.1-7.2-7.2-7.2zM312.1 279.8l-11.1 7.7V333h45v-44.9l-8.2-5.9c-4.6-3.2-9.7-6.8-11.4-8l-3.1-2.1zM315.7 357.2l7.2 7.1 7-6.2c3.9-3.5 7.1-6.7 7.1-7.2s-6.4-.9-14.2-.9h-14.3zM970 139.4c-18.9 4.2-30.5 21-27.9 40.1 1.6 11.9 9.3 22 20.7 27.3 4.9 2.3 7 2.7 14.7 2.7 7.8 0 9.7-.4 14.7-2.8 7.5-3.7 13.8-9.9 17.4-17.2 2.6-5.3 2.9-7.1 2.9-15 0-8.2-.3-9.7-3.3-15.7-7.3-15-23.4-22.9-39.2-19.4M884.3 220.4c-10 3.3-16.9 9.2-22.1 18.9-2.4 4.7-2.7 6.2-2.7 15.2 0 8.9.3 10.6 2.8 15.7 1.7 3.4 5 7.7 8.2 10.7 7.1 6.4 14.1 9.1 24 9.1s16.9-2.7 24-9.1c3.2-3 6.5-7.3 8.2-10.7 2.5-5 2.8-6.8 2.8-15.2 0-8.2-.4-10.3-2.6-15.1-5.9-12.6-16.9-20-30.7-20.6-4.7-.2-9.3.3-11.9 1.1M1050.4 222c-10.3 2.2-21.2 11-25.6 20.7-3.2 6.9-3.2 21.8-.1 28.6 3.3 7.1 11.3 15 18.6 18.3 5.3 2.4 7.5 2.8 14.7 2.8 7.1.1 9.4-.4 14-2.5 7.8-3.7 13.1-8.8 17-16.1 2.8-5.3 3.5-7.6 3.8-14.3.5-9.5-.6-14.1-5-21.5-7.3-12.1-23.3-19-37.4-16M963.8 303.3c-11.5 4.3-19.4 12.4-22.8 23.4-2.5 8.2-2.5 13.4 0 21.4 5.1 16.2 19.3 25.8 36.4 24.7 9-.6 15.1-3.3 22-9.8 7.6-7.2 11-14.9 11-25.5 0-6.9-.4-9-3-14.5-3.8-8-10.1-14.5-17.4-17.9-6.6-3.1-20.1-4-26.2-1.8M480.5 355.1c-24.5 3.8-45.3 19.1-56 41.3-10.9 22.7-8.9 51.1 5 72.1 13.8 20.8 36.3 32.9 61.5 32.8 31.8 0 58.7-19 69.4-49 11.1-31.3-1-67.3-28.9-85.8-14.3-9.4-34.5-14-51-11.4M801 354.7c-30 3.4-54.8 24.6-63.2 53.8-3.1 11.2-3.1 27.8 0 39 9.3 32.4 37.5 53.8 71.2 53.8 12.9 0 20.3-1.7 33-7.9 8.1-4 10.9-6.1 18.6-13.8 15-15.1 21.4-30.5 21.4-51.6 0-7.3-.6-13.1-2-18.4-8.8-34.7-43.7-58.9-79-54.9"/></svg>