<?xml version="1.0" standalone="no"?>
<!DOCTYPE svg PUBLIC "-//W3C//DTD SVG 20010904//EN"
 "http://www.w3.org/TR/2001/REC-SVG-20010904/DTD/svg10.dtd">
<svg version="1.0" xmlns="http://www.w3.org/2000/svg"
 width="348.000000pt" height="332.000000pt" viewBox="0 0 348.000000 332.000000"
 preserveAspectRatio="xMidYMid meet">

<g transform="translate(0.000000,332.000000) scale(0.100000,-0.100000)"
fill="#000000" stroke="none">
<path d="M1415 1956 c-41 -41 -49 -94 -50 -316 0 -186 2 -209 20 -245 24 -49
57 -67 95 -54 36 13 58 63 72 162 12 94 6 370 -10 409 -28 67 -84 87 -127 44z
m82 -56 c18 -36 16 -152 -3 -200 -26 -65 -56 -50 -75 40 -12 56 0 149 23 177
16 20 40 12 55 -17z"/>
<path d="M1977 1968 c-36 -28 -50 -88 -55 -234 -5 -158 10 -303 37 -349 9 -16
30 -36 45 -44 25 -12 31 -11 55 6 51 38 62 95 58 318 -3 177 -6 205 -24 247
-29 63 -76 86 -116 56z m81 -97 c16 -52 15 -97 -3 -158 -19 -65 -38 -73 -62
-25 -25 52 -25 187 0 226 17 26 20 27 36 12 10 -9 23 -34 29 -55z"/>
</g>
</svg>
